<svg width="124" height="33" viewBox="0 0 124 33" fill="none" xmlns="http://www.w3.org/2000/svg">
<g style="mix-blend-mode:luminosity">
<path fill-rule="evenodd" clip-rule="evenodd" d="M76.651 25.8069C69.471 30.4969 59.064 32.9999 50.104 32.9999C37.54 32.9999 26.229 28.8809 17.673 22.0319C17 21.4929 17.603 20.7589 18.409 21.1779C27.644 25.9399 39.062 28.8049 50.857 28.8049C58.811 28.8049 67.562 27.3469 75.607 24.3199C76.823 23.8619 77.839 25.0249 76.651 25.8069Z" fill="#A7A7A7"/>
<path fill-rule="evenodd" clip-rule="evenodd" d="M79.636 22.7801C78.722 21.7411 73.569 22.289 71.257 22.532C70.552 22.608 70.444 22.0651 71.079 21.6741C75.183 19.1141 81.916 19.8531 82.701 20.7111C83.487 21.5741 82.497 27.556 78.641 30.412C78.049 30.85 77.485 30.617 77.748 30.035C78.614 28.119 80.556 23.8241 79.636 22.7801Z" fill="#A7A7A7"/>
<path fill-rule="evenodd" clip-rule="evenodd" d="M71.418 3.60406V1.11505C71.418 0.739051 71.741 0.486084 72.128 0.486084H84.697C85.101 0.486084 85.423 0.744051 85.423 1.11505V3.24603C85.418 3.60403 85.079 4.07106 84.477 4.81006L77.964 13.0511C80.384 12.9991 82.939 13.318 85.133 14.415C85.628 14.662 85.762 15.0251 85.8 15.3821V18.037C85.8 18.4 85.348 18.8241 84.875 18.6041C81.008 16.8071 75.871 16.6121 71.596 18.6241C71.16 18.8331 70.703 18.4141 70.703 18.0521V15.5301C70.703 15.1251 70.708 14.434 71.165 13.819L78.711 4.22809H72.144C71.741 4.22809 71.418 3.97506 71.418 3.60406Z" fill="black"/>
<path fill-rule="evenodd" clip-rule="evenodd" d="M25.568 19.129H21.744C21.379 19.105 21.088 18.862 21.061 18.552V1.15802C21.061 0.81002 21.389 0.533997 21.798 0.533997H25.364C25.735 0.547997 26.031 0.80099 26.058 1.11499V3.38898H26.128C27.058 1.19198 28.806 0.166992 31.162 0.166992C33.555 0.166992 35.05 1.19198 36.126 3.38898C37.051 1.19198 39.154 0.166992 41.407 0.166992C43.01 0.166992 44.763 0.75297 45.834 2.06897C47.044 3.53197 46.796 5.65797 46.796 7.52197L46.791 18.5C46.791 18.848 46.463 19.129 46.054 19.129H42.236C41.854 19.105 41.547 18.833 41.547 18.5V9.28101C41.547 8.54701 41.623 6.71602 41.44 6.02002C41.155 4.85302 40.299 4.52399 39.192 4.52399C38.266 4.52399 37.298 5.07197 36.906 5.94897C36.513 6.82597 36.551 8.29401 36.551 9.28101V18.5C36.551 18.848 36.223 19.129 35.814 19.129H31.995C31.608 19.105 31.307 18.833 31.307 18.5L31.302 9.28101C31.302 7.34101 31.662 4.48602 28.946 4.48602C26.198 4.48602 26.305 7.26901 26.305 9.28101V18.5C26.305 18.848 25.977 19.129 25.568 19.129Z" fill="black"/>
<path fill-rule="evenodd" clip-rule="evenodd" d="M96.244 0.166992C101.918 0.166992 104.989 4.48599 104.989 9.97699C104.989 15.282 101.596 19.491 96.244 19.491C90.672 19.491 87.639 15.172 87.639 9.79102C87.639 4.37602 90.71 0.166992 96.244 0.166992ZM96.276 3.71802C93.458 3.71802 93.281 7.12198 93.281 9.24298C93.281 11.369 93.243 15.907 96.244 15.907C99.208 15.907 99.347 12.246 99.347 10.015C99.347 8.54701 99.278 6.793 98.777 5.401C98.347 4.19 97.492 3.71802 96.276 3.71802Z" fill="black"/>
<path fill-rule="evenodd" clip-rule="evenodd" d="M112.347 19.129H108.539C108.157 19.105 107.851 18.833 107.851 18.5L107.845 1.10101C107.878 0.782013 108.195 0.533997 108.582 0.533997H112.126C112.46 0.547997 112.734 0.74802 112.809 1.02002V3.67999H112.879C113.95 1.30099 115.45 0.166992 118.091 0.166992C119.807 0.166992 121.479 0.71498 122.555 2.21698C123.555 3.60798 123.555 5.94902 123.555 7.63202V18.581C123.512 18.886 123.195 19.129 122.818 19.129H118.984C118.634 19.105 118.344 18.876 118.306 18.581V9.133C118.306 7.231 118.553 4.44702 115.913 4.44702C114.982 4.44702 114.127 4.99999 113.702 5.83899C113.164 6.90199 113.095 7.96 113.095 9.133V18.5C113.089 18.848 112.756 19.129 112.347 19.129Z" fill="black"/>
<path fill-rule="evenodd" clip-rule="evenodd" d="M61.399 10.82C61.399 12.141 61.436 13.242 60.683 14.415C60.075 15.368 59.107 15.954 58.037 15.954C56.569 15.954 55.708 14.963 55.708 13.499C55.708 10.611 58.629 10.086 61.399 10.086V10.82ZM65.255 19.081C65.002 19.281 64.636 19.296 64.351 19.162C63.082 18.228 62.851 17.794 62.157 16.903C60.059 18.8 58.57 19.367 55.854 19.367C52.632 19.367 50.131 17.608 50.131 14.086C50.131 11.335 51.809 9.462 54.208 8.547C56.284 7.736 59.183 7.59302 61.399 7.36902V6.93103C61.399 6.12503 61.468 5.17201 60.931 4.47601C60.468 3.85201 59.575 3.59399 58.785 3.59399C57.327 3.59399 56.031 4.25703 55.714 5.62903C55.649 5.93503 55.396 6.23502 55.047 6.24902L51.341 5.896C51.029 5.834 50.68 5.60997 50.771 5.18597C51.621 1.20097 55.687 0 59.323 0C61.183 0 63.614 0.439012 65.083 1.68701C66.944 3.22701 66.766 5.28203 66.766 7.51703V12.799C66.766 14.386 67.508 15.082 68.207 15.94C68.449 16.245 68.503 16.612 68.191 16.841C67.411 17.418 66.024 18.49 65.26 19.091L65.255 19.081Z" fill="black"/>
<path fill-rule="evenodd" clip-rule="evenodd" d="M11.267 10.82C11.267 12.141 11.305 13.242 10.552 14.415C9.944 15.368 8.982 15.954 7.906 15.954C6.438 15.954 5.583 14.963 5.583 13.499C5.583 10.611 8.503 10.086 11.267 10.086V10.82ZM15.124 19.081C14.871 19.281 14.505 19.296 14.22 19.162C12.951 18.228 12.725 17.794 12.026 16.903C9.928 18.8 8.444 19.367 5.722 19.367C2.506 19.367 0 17.608 0 14.086C0 11.335 1.683 9.462 4.077 8.547C6.153 7.736 9.052 7.59302 11.267 7.36902V6.93103C11.267 6.12503 11.337 5.17201 10.805 4.47601C10.337 3.85201 9.444 3.59399 8.659 3.59399C7.202 3.59399 5.9 4.25703 5.583 5.62903C5.518 5.93503 5.265 6.23502 4.921 6.24902L1.21 5.896C0.897999 5.834 0.553999 5.60997 0.639999 5.18597C1.495 1.20097 5.556 0 9.191 0C11.052 0 13.483 0.439012 14.952 1.68701C16.812 3.22701 16.635 5.28203 16.635 7.51703V12.799C16.635 14.386 17.377 15.082 18.076 15.94C18.324 16.245 18.378 16.612 18.066 16.841C17.286 17.418 15.898 18.49 15.134 19.091L15.124 19.081Z" fill="black"/>
</g>
</svg>
