<svg width="51" height="49" viewBox="0 0 51 49" fill="none" xmlns="http://www.w3.org/2000/svg">
<path d="M2.3455 33.6995C0.581296 34.7329 -0.0240241 36.9722 0.994638 38.7437C2.0133 40.5153 4.2721 41.106 6.03631 40.0972L2.3455 33.6995ZM50.3727 13.2523C50.9018 11.2839 49.733 9.26663 47.7646 8.72531L15.6792 0.13806C13.7107 -0.403258 11.6857 0.777944 11.1591 2.74637C10.6301 4.7148 11.7989 6.73203 13.7673 7.24875L42.2874 14.9013L34.6474 43.4185C34.1184 45.3869 35.2871 47.4048 37.2556 47.9461C39.224 48.4628 41.249 47.3062 41.7756 45.3378L50.3727 13.2523ZM6.03631 40.0972L48.6553 15.4918L44.9645 9.09415L2.3455 33.6995L6.03631 40.0972Z" fill="#B9FF66"/>
</svg>
