<svg width="127" height="48" viewBox="0 0 127 48" fill="none" xmlns="http://www.w3.org/2000/svg">
<mask id="mask0_1_893" style="mask-type:luminance" maskUnits="userSpaceOnUse" x="0" y="0" width="127" height="48">
<path d="M126.387 0H0.0180664V48H126.387V0Z" fill="white"/>
</mask>
<g mask="url(#mask0_1_893)">
<g style="mix-blend-mode:luminosity">
<path fill-rule="evenodd" clip-rule="evenodd" d="M125.591 30.563C120.335 38.461 112.012 36.169 109.512 34.375C108.448 35.015 106.583 36.417 104.095 36.255C98.7981 35.91 96.9011 29.201 96.9011 29.201C96.9391 29.228 95.3231 29.695 94.4491 29.687C94.4381 31.654 92.5191 36.355 87.3391 36.294C81.5281 36.227 80.3461 28.553 80.3461 28.553C80.3461 28.553 79.7681 29.265 77.5681 29.974C77.6791 28.462 77.5981 36.064 70.632 36.176C65.125 36.265 63.6391 28.435 63.6391 28.435C63.6391 28.435 62.6841 29.314 60.8321 29.619C60.9501 28.083 60.7581 36.202 53.7921 36.176C49.0841 36.159 47.4751 31.353 47.6001 30.686C47.7601 29.836 46.0091 36.296 41.4361 36.195C39.5491 36.146 38.1421 34.935 37.2591 33.32C36.0771 34.519 34.3611 36.195 32.4361 36.195C28.9811 36.195 27.4581 33.634 27.7151 26.318C27.7381 25.45 27.6671 25.109 26.6941 24.979C26.1091 24.893 25.5111 24.729 24.8781 24.643C24.6751 25.243 22.9551 36 17.0381 36.204C15.0531 36.272 13.967 34.748 13.076 33.617C11.71 35.219 9.90606 36.255 7.33606 36.255C2.98406 36.255 0.0180664 33.136 0.0180664 29.29C0.0180664 25.442 2.98406 22.324 7.33606 22.324C8.10606 22.324 8.32205 22.422 9.02505 22.604C7.57905 10.936 10.994 9.11298 13.981 9.11298C16.849 9.11298 21.7481 15.012 14.8541 29.975C16.3851 34.438 19.684 34.186 21.2701 24.998C21.5921 23.131 20.7291 20.611 22.0721 20.259C24.5251 19.616 24.7851 21.545 25.9351 21.866C27.1521 22.206 27.8621 22.172 29.0291 22.389C31.0251 22.734 31.8031 23.684 31.5601 25.8C31.2681 28.477 30.7571 32.373 32.3141 32.848C33.4371 33.193 35.487 31.129 35.847 30C36.207 28.871 36.2821 28.484 36.3141 27.656C36.3621 25.886 36.4231 24.589 36.7641 23.25C36.9101 22.732 37.0761 22.389 37.7371 22.365C38.2811 22.353 39.2761 22.208 39.7141 22.51C40.298 22.899 40.2251 23.293 40.1581 24.332C39.479 39.135 44.7051 31.745 46.2631 25.828C45.7091 19.137 46.0891 9.23597 50.8201 9.06897C53.2811 8.98297 54.3681 10.73 54.4881 12.034C54.8271 15.717 52.931 21.817 50.438 25.92C49.0131 34.291 56.6681 35.946 57.8921 29.264C55.8891 28.42 53.7251 25.004 55.4861 23.34C56.4741 22.405 60.5881 23.748 60.6551 26.675C62.6731 26.196 62.9431 25.187 62.9701 25.354C62.4161 18.663 62.9301 9.23601 67.6611 9.07001C70.1221 8.98301 71.2091 10.73 71.3291 12.034C71.6671 15.717 69.772 21.817 67.2791 25.92C65.854 34.291 73.5081 35.946 74.7321 29.264C73.2501 29.011 70.12 25.378 71.925 23.34C72.8911 22.251 76.9891 24.515 77.4481 26.772C79.3871 26.286 79.6501 25.308 79.6781 25.472C79.1231 18.782 79.637 9.35399 84.369 9.18799C86.829 9.10199 87.9161 10.849 88.0361 12.153C88.3741 15.835 86.479 21.936 83.9861 26.039C82.5611 34.41 90.2151 36.064 91.4391 29.383C89.4021 29.082 86.5061 25.246 88.8371 23.283C89.7681 22.499 93.3261 24.535 94.1591 26.857C95.3161 26.817 96.0361 26.464 96.1911 26.428C94.3431 18.573 95.7191 9.14801 100.808 9.07001C103.559 9.02701 106.248 10.388 105.068 17.861C103.941 24.991 99.8911 27.983 99.9001 28.029C100.136 28.883 102.214 36.031 107.448 32.259C107.177 31.716 106.906 31.16 106.754 30.487C105.887 26.568 107.591 22.14 112.222 21.425C114.875 21.015 117.374 22.16 117.77 24.741C118.42 28.965 114.117 32.023 112.48 32.687C111.748 32.318 119.124 36.511 123.502 28.108C123.756 27.628 124.061 27.669 124.458 27.916C124.738 28.091 126.333 29.43 125.591 30.563ZM10.5031 28.252C10.2801 27.662 9.82307 26.361 9.66107 25.798C8.77107 25.111 8.13507 25 6.99307 25C4.45307 25 2.95908 27.081 2.95908 29.325C2.95908 31.568 4.58707 33.65 7.12607 33.65C9.32707 33.65 11.0021 32.323 11.5131 30.446C11.1551 29.714 10.8011 29.042 10.5031 28.252ZM13.9191 12.201C12.1341 12.201 11.5291 15.974 11.6461 19.192C11.7501 22.038 12.6471 24.543 13.1131 25.665C13.2311 25.806 13.2091 25.714 13.3151 25.864C16.4131 19.847 15.1281 12.201 13.9191 12.201ZM51.0751 12.32C48.7691 12.086 48.7841 20.6 49.0701 22.51C50.2681 20.812 52.3491 12.777 51.0751 12.32ZM67.916 12.32C65.61 12.086 65.6251 20.6 65.9111 22.51C67.1091 20.812 69.189 12.777 67.916 12.32ZM84.623 12.438C82.317 12.204 82.3321 20.719 82.6181 22.629C83.8161 20.93 85.896 12.896 84.623 12.438ZM101.063 11.822C97.47 12.461 98.3061 23.079 98.8521 24.941C103.084 19.789 103.172 11.628 101.063 11.822ZM114.529 25.09C114.346 24.413 113.433 24.051 112.802 24.141C110.998 24.359 109.248 26.35 109.926 29.382C110.076 30.058 110.454 30.679 110.448 30.659C114.485 28.258 114.828 26.366 114.529 25.09ZM38.4441 20.022C37.9291 20.022 37.4251 19.886 36.9961 19.633C36.5671 19.379 36.2331 19.018 36.0361 18.596C35.8381 18.174 35.7861 17.709 35.8871 17.261C35.9881 16.812 36.2361 16.401 36.6001 16.078C36.9651 15.754 37.4301 15.534 37.9351 15.445C38.4411 15.356 38.965 15.402 39.442 15.577C39.918 15.751 40.3251 16.048 40.6121 16.428C40.8981 16.808 41.0511 17.254 41.0511 17.711C41.0511 18.015 40.9841 18.315 40.8531 18.595C40.7221 18.876 40.5301 19.13 40.2881 19.345C40.0461 19.56 39.758 19.73 39.442 19.846C39.126 19.962 38.7871 20.022 38.4441 20.022Z" fill="#0D0C22"/>
</g>
</g>
</svg>
