<svg width="50" height="50" viewBox="0 0 50 50" fill="none" xmlns="http://www.w3.org/2000/svg">
<path d="M25 50C38.8071 50 50 38.8071 50 25C50 11.1929 38.8071 0 25 0C11.1929 0 0 11.1929 0 25C0 38.8071 11.1929 50 25 50Z" fill="#191A23"/>
<path d="M13.7196 30.1218C12.8452 30.634 12.5452 31.7438 13.0501 32.6219C13.555 33.4999 14.6745 33.7926 15.5489 33.2926L13.7196 30.1218ZM37.5233 19.9877C37.7855 19.0121 37.2062 18.0122 36.2306 17.7439L20.3281 13.4878C19.3525 13.2195 18.3489 13.8048 18.0879 14.7804C17.8257 15.756 18.405 16.7559 19.3806 17.012L33.5159 20.8049L29.7294 34.939C29.4672 35.9146 30.0464 36.9145 31.022 37.1828C31.9977 37.4389 33.0013 36.8658 33.2623 35.8902L37.5233 19.9877ZM15.5489 33.2926L36.672 21.0975L34.8428 17.9267L13.7196 30.1218L15.5489 33.2926Z" fill="#B9FF66"/>
</svg>
