<svg width="129" height="48" viewBox="0 0 129 48" fill="none" xmlns="http://www.w3.org/2000/svg">
<mask id="mask0_1_898" style="mask-type:luminance" maskUnits="userSpaceOnUse" x="0" y="0" width="129" height="48">
<path d="M128.919 0H0.292969V48H128.919V0Z" fill="white"/>
</mask>
<g mask="url(#mask0_1_898)">
<g style="mix-blend-mode:luminosity">
<path d="M14.181 13.106V22.1939H4.76392V13.106H0.292969V34.7999H4.76392V26.007H14.181V34.7999H18.6509V13.106H14.181Z" fill="#434343"/>
<path d="M32.96 27.7869C32.96 28.6559 32.57 29.4899 31.876 30.1049C31.183 30.7189 30.242 31.0649 29.261 31.0649C28.28 31.0649 27.339 30.7189 26.646 30.1049C25.952 29.4899 25.562 28.6559 25.562 27.7869V18.4949H21.322V27.7869C21.322 29.6509 22.157 31.4389 23.645 32.7579C25.132 34.0759 27.15 34.8169 29.253 34.8169C31.357 34.8169 33.375 34.0759 34.862 32.7579C36.349 31.4389 37.185 29.6509 37.185 27.7869V18.4949H32.96V27.7869Z" fill="#434343"/>
<path d="M64.381 19.4529C64.381 17.5479 65.803 16.9439 67.36 16.9439C68.615 16.9439 70.273 17.7909 71.358 18.8179L74.135 15.9169C72.749 14.2559 69.936 13.106 67.634 13.106C63.034 13.106 59.707 15.4939 59.707 19.4529C59.707 26.7969 69.835 24.467 69.835 28.577C69.835 29.845 68.447 30.965 66.856 30.965C64.348 30.965 63.536 29.8779 62.383 28.7289L59.301 31.5689C61.273 33.7139 63.704 34.8029 66.618 34.8029C70.988 34.8029 74.503 32.3859 74.503 28.6079C74.503 20.4539 64.375 22.9879 64.375 19.4529" fill="#434343"/>
<path d="M127.042 31.3339C124.536 31.3339 123.824 30.3729 123.824 28.9009V22.3879H127.719V19.0869H123.824V14.7329L119.525 16.4429V29.7109C119.525 33.1039 122.166 34.8149 125.789 34.8149C126.358 34.8239 126.925 34.7839 127.485 34.6939L128.534 31.2719C128.061 31.3009 127.518 31.33 127.042 31.33" fill="#434343"/>
<path d="M49.1019 18.6048C47.0019 18.6048 45.536 19.1438 44.119 20.3768V13.2368H39.8719V26.4708C39.8719 31.4258 43.9129 34.8188 48.4539 34.8188C53.4919 34.8188 57.924 31.3658 57.924 26.7138C57.924 22.1208 53.8449 18.6068 49.1019 18.6068V18.6048ZM49.0759 31.0318C48.1229 31.0318 47.1909 30.7808 46.3989 30.3118C45.6059 29.8418 44.989 29.1748 44.624 28.3948C44.259 27.6148 44.1639 26.7558 44.3499 25.9268C44.5359 25.0988 44.9949 24.3378 45.6689 23.7398C46.3429 23.1428 47.2009 22.7358 48.1359 22.5708C49.0709 22.4068 50.0399 22.4908 50.9199 22.8148C51.8009 23.1378 52.5539 23.6848 53.0829 24.3878C53.6129 25.0898 53.895 25.9158 53.895 26.7598C53.895 27.8928 53.3879 28.9798 52.4839 29.7808C51.5799 30.5818 50.3539 31.0318 49.0759 31.0318Z" fill="#434343"/>
<path d="M95.2209 26.515C95.2209 21.856 90.7979 18.4099 85.7509 18.4099C81.2099 18.4099 77.1689 21.8029 77.1689 26.7579V39.9999H81.416V32.8499C82.831 34.0809 84.2989 34.6219 86.3979 34.6219C91.1399 34.6219 95.2189 31.11 95.2189 26.515H95.2209ZM91.1989 26.468C91.1989 27.313 90.916 28.1389 90.387 28.8409C89.857 29.5439 89.1049 30.0909 88.2239 30.4139C87.3439 30.7379 86.3749 30.8219 85.4399 30.6569C84.5049 30.4929 83.6459 30.086 82.9719 29.489C82.2979 28.891 81.8389 28.1299 81.6539 27.3019C81.4679 26.4729 81.5629 25.6139 81.9279 24.8339C82.2919 24.0539 82.9099 23.3859 83.7029 22.9169C84.4949 22.4479 85.4269 22.197 86.3799 22.197C87.6579 22.197 88.884 22.6469 89.788 23.4479C90.691 24.2489 91.1989 25.336 91.1989 26.468Z" fill="#434343"/>
<path d="M108.899 18.3499V14.6069C109.457 14.3759 109.93 14.009 110.262 13.549C110.594 13.089 110.772 12.5549 110.774 12.0089V11.9219C110.772 11.1589 110.429 10.428 109.82 9.88795C109.212 9.34895 108.387 9.04498 107.526 9.04298H107.427C106.566 9.04498 105.742 9.34895 105.133 9.88795C104.524 10.428 104.181 11.1589 104.179 11.9219V12.0089C104.182 12.5549 104.359 13.089 104.691 13.549C105.023 14.009 105.496 14.3759 106.054 14.6069V18.3499C104.449 18.5669 102.938 19.1559 101.673 20.0579L90.0759 12.0609C90.1589 11.7979 90.2029 11.526 90.2079 11.252C90.2089 10.609 89.9949 9.98097 89.5929 9.44697C89.1909 8.91197 88.6189 8.49497 87.9499 8.24897C87.2799 8.00197 86.5439 7.93696 85.8329 8.06196C85.1219 8.18596 84.4679 8.49493 83.9549 8.94893C83.4419 9.40193 83.0919 9.98097 82.9499 10.611C82.8079 11.24 82.8789 11.894 83.1559 12.487C83.4319 13.081 83.9009 13.5889 84.5039 13.9459C85.1059 14.3039 85.8139 14.4949 86.5389 14.4959C87.1749 14.4939 87.7999 14.343 88.3499 14.059L99.7519 21.926C98.7249 23.299 98.1889 24.915 98.2149 26.562C98.2399 28.209 98.8249 29.8109 99.8939 31.1589L96.4249 34.234C96.1459 34.156 95.8559 34.1139 95.5639 34.1099C94.9679 34.1099 94.3859 34.2669 93.8899 34.5599C93.3949 34.8529 93.0089 35.2699 92.7809 35.7579C92.5529 36.2459 92.4929 36.7819 92.6099 37.2999C92.7259 37.8179 93.0129 38.2939 93.4339 38.6669C93.8549 39.0399 94.3919 39.295 94.9759 39.398C95.5599 39.501 96.1659 39.4479 96.7159 39.2459C97.2669 39.0439 97.7369 38.701 98.0679 38.262C98.3989 37.824 98.5759 37.3069 98.5759 36.7789C98.5719 36.5199 98.5239 36.2629 98.4349 36.0159L101.868 32.9739C102.988 33.7329 104.29 34.254 105.672 34.499C107.055 34.744 108.482 34.706 109.846 34.387C111.209 34.068 112.472 33.478 113.539 32.661C114.605 31.843 115.447 30.821 116 29.671C116.552 28.522 116.801 27.275 116.728 26.028C116.654 24.78 116.26 23.563 115.575 22.471C114.89 21.379 113.932 20.4399 112.775 19.7249C111.618 19.0109 110.293 18.5409 108.899 18.3499ZM107.478 30.6619C106.538 30.6619 105.62 30.415 104.839 29.953C104.058 29.49 103.45 28.833 103.09 28.064C102.731 27.295 102.637 26.448 102.82 25.632C103.003 24.815 103.456 24.0659 104.12 23.4769C104.784 22.8879 105.63 22.487 106.551 22.325C107.472 22.163 108.427 22.246 109.295 22.565C110.163 22.883 110.905 23.4229 111.426 24.1149C111.948 24.8069 112.227 25.621 112.227 26.453C112.227 27.569 111.726 28.64 110.836 29.429C109.945 30.219 108.737 30.6619 107.478 30.6619Z" fill="#9E9E9E"/>
</g>
</g>
</svg>
