<svg width="171" height="38" viewBox="0 0 171 38" fill="none" xmlns="http://www.w3.org/2000/svg">
<path d="M46.5932 32.3004L40.0034 7.33908H45.3224L49.1346 24.6828H49.3258L53.5315 7.33908H58.0859L62.2804 24.7194H62.4827L66.2949 7.33908H71.6139L65.0242 32.3004H60.2787L55.893 15.9805H55.7131L51.3387 32.3004H46.5932ZM74.1303 32.3004V13.5794H78.9204V32.3004H74.1303ZM76.5363 11.1662C75.8241 11.1662 75.2133 10.9102 74.7038 10.3983C74.2014 9.87828 73.9502 9.25667 73.9502 8.53355C73.9502 7.81852 74.2014 7.205 74.7038 6.69313C75.2133 6.1731 75.8241 5.91309 76.5363 5.91309C77.2484 5.91309 77.8557 6.1731 78.3582 6.69313C78.8683 7.205 79.1231 7.81852 79.1231 8.53355C79.1231 9.25667 78.8683 9.87828 78.3582 10.3983C77.8557 10.9102 77.2484 11.1662 76.5363 11.1662ZM82.6676 32.3004V29.2046L91.1247 17.8575V17.7234H82.9604V13.5794H96.893V16.9555L88.9538 28.0224V28.1565H97.1858V32.3004H82.6676ZM105.774 32.6538C104.672 32.6538 103.69 32.4467 102.828 32.0322C101.966 31.6098 101.283 30.9882 100.781 30.1675C100.286 29.3386 100.039 28.3067 100.039 27.0717C100.039 26.0316 100.215 25.1582 100.568 24.4512C100.92 23.7444 101.4 23.1755 102.007 22.7449C102.614 22.3143 103.304 21.9892 104.076 21.7699C104.856 21.5504 105.673 21.3961 106.527 21.3067C107.532 21.1929 108.342 21.0873 108.957 20.9898C109.572 20.8842 110.017 20.7298 110.295 20.5266C110.572 20.3235 110.711 20.0229 110.711 19.6247V19.5516C110.711 18.7797 110.486 18.1825 110.036 17.7599C109.594 17.3374 108.964 17.1262 108.147 17.1262C107.285 17.1262 106.599 17.3333 106.089 17.7477C105.58 18.154 105.242 18.666 105.077 19.2834L100.647 18.8935C100.871 17.7559 101.314 16.7727 101.973 15.9439C102.633 15.107 103.484 14.4651 104.526 14.0182C105.575 13.5631 106.79 13.3356 108.169 13.3356C109.129 13.3356 110.047 13.4575 110.925 13.7013C111.809 13.945 112.593 14.3229 113.275 14.8348C113.964 15.3467 114.508 16.0049 114.905 16.8093C115.303 17.6056 115.501 18.5603 115.501 19.6735V32.3004H110.958V29.7043H110.824C110.546 30.2894 110.175 30.8053 109.71 31.2522C109.245 31.691 108.686 32.0363 108.035 32.2882C107.382 32.5319 106.629 32.6538 105.774 32.6538ZM107.146 29.0706C107.851 29.0706 108.473 28.9202 109.013 28.6196C109.553 28.3108 109.976 27.8964 110.284 27.3764C110.591 26.8563 110.745 26.2672 110.745 25.6091V23.6225C110.595 23.7281 110.389 23.8256 110.126 23.915C109.871 23.9962 109.583 24.0734 109.26 24.1465C108.938 24.2115 108.615 24.2724 108.293 24.3293C107.971 24.3781 107.679 24.4228 107.416 24.4634C106.854 24.5528 106.363 24.695 105.943 24.89C105.523 25.085 105.197 25.3491 104.964 25.6822C104.732 26.0072 104.616 26.4135 104.616 26.901C104.616 27.608 104.852 28.1483 105.324 28.5221C105.804 28.8877 106.411 29.0706 107.146 29.0706ZM119.218 32.3004V13.5794H123.862V16.8458H124.042C124.357 15.6839 124.886 14.8064 125.628 14.2132C126.37 13.612 127.225 13.3113 128.192 13.3113C128.432 13.3113 128.69 13.3275 128.968 13.36C129.245 13.3925 129.489 13.4372 129.698 13.4941V18.1012C129.474 18.0281 129.163 17.9631 128.765 17.9062C128.368 17.8493 128.004 17.8209 127.674 17.8209C126.969 17.8209 126.34 17.9874 125.785 18.3206C125.238 18.6456 124.803 19.1006 124.481 19.6857C124.166 20.2707 124.008 20.9451 124.008 21.7089V32.3004H119.218ZM137.736 32.6051C136.424 32.6051 135.236 32.2394 134.171 31.5082C133.114 30.7687 132.275 29.684 131.652 28.2539C131.037 26.8157 130.731 25.0525 130.731 22.9643C130.731 20.8191 131.049 19.0356 131.686 17.6137C132.323 16.1836 133.17 15.1151 134.227 14.4082C135.292 13.6932 136.458 13.3356 137.725 13.3356C138.692 13.3356 139.498 13.5144 140.143 13.872C140.795 14.2214 141.319 14.6601 141.717 15.1882C142.121 15.7083 142.429 16.2202 142.639 16.7239H142.785V7.33908H147.565V32.3004H142.841V29.3021H142.639C142.414 29.8221 142.095 30.3381 141.683 30.85C141.278 31.3538 140.75 31.7722 140.098 32.1054C139.453 32.4385 138.666 32.6051 137.736 32.6051ZM139.254 28.4733C140.027 28.4733 140.679 28.2458 141.211 27.7908C141.751 27.3276 142.163 26.6817 142.448 25.8529C142.74 25.0241 142.886 24.0531 142.886 22.9399C142.886 21.8268 142.744 20.8598 142.459 20.0391C142.174 19.2185 141.762 18.5846 141.222 18.1378C140.682 17.6909 140.027 17.4674 139.254 17.4674C138.467 17.4674 137.804 17.699 137.264 18.1622C136.724 18.6253 136.315 19.2672 136.038 20.0879C135.761 20.9085 135.622 21.8592 135.622 22.9399C135.622 24.0287 135.761 24.9916 136.038 25.8285C136.323 26.6573 136.732 27.3073 137.264 27.7786C137.804 28.2417 138.467 28.4733 139.254 28.4733ZM151.346 32.3004V29.168L162.838 11.6902H151.323V7.33908H168.956V10.4714L157.452 27.9492H168.978V32.3004H151.346Z" fill="black"/>
<mask id="mask0_115_8769" style="mask-type:luminance" maskUnits="userSpaceOnUse" x="0" y="6" width="26" height="26">
<path d="M25.3333 6.3335H0V31.6668H25.3333V6.3335Z" fill="white"/>
</mask>
<g mask="url(#mask0_115_8769)">
<path d="M12.6659 10.2282L25.0518 6.5791L21.4376 19.0002L25.0518 31.386L12.6659 27.7718L0.244873 31.386L3.89358 19.0002L0.244873 6.5791L12.6659 10.2282Z" fill="black"/>
</g>
</svg>
