<svg width="214" height="39" viewBox="0 0 214 39" fill="none" xmlns="http://www.w3.org/2000/svg">
<mask id="mask0_1_1302" style="mask-type:luminance" maskUnits="userSpaceOnUse" x="7" y="8" width="23" height="23">
<path d="M29.7868 8.08643H7.45V30.4232H29.7868V8.08643Z" fill="white"/>
</mask>
<g mask="url(#mask0_1_1302)">
<path d="M18.6178 11.5207L29.5386 8.30322L26.3519 19.2551L29.5386 30.1759L18.6178 26.9891L7.66591 30.1759L10.883 19.2551L7.66591 8.30322L18.6178 11.5207Z" fill="black"/>
</g>
<path d="M42.6826 9.37116C47.6637 9.37116 50.9025 12.4536 50.9025 17.189C50.9025 21.9021 47.6637 24.9622 42.6826 24.9622H37.2324V9.37116H42.6826ZM40.3596 22.3042H42.5709C45.8544 22.3042 47.7084 20.4279 47.7084 17.189C47.7084 13.9502 45.8544 12.0069 42.5709 12.0069H40.3596V22.3042ZM53.2436 24.9622V12.5877H56.3707V24.9622H53.2436ZM54.8295 11.1134C53.7126 11.1134 52.9085 10.3093 52.9085 9.28181C52.9085 8.25432 53.7126 7.4502 54.8295 7.4502C55.924 7.4502 56.7504 8.25432 56.7504 9.28181C56.7504 10.3093 55.924 11.1134 54.8295 11.1134ZM58.6559 18.7303C58.6559 14.866 61.1576 12.3866 64.3071 12.3866C66.2504 12.3866 67.6576 13.2801 68.3947 14.3523V12.5877H71.5442V25.0516C71.5442 28.4021 69.4892 31.0602 65.4239 31.0602C61.9394 31.0602 59.5047 29.3179 59.192 26.4811H62.2968C62.6095 27.598 63.771 28.3351 65.3346 28.3351C67.0545 28.3351 68.3947 27.3523 68.3947 25.0516V23.1306C67.6576 24.2028 66.2504 25.1633 64.3071 25.1633C61.1576 25.1633 58.6559 22.5945 58.6559 18.7303ZM68.3947 18.775C68.3947 16.4296 66.8312 15.1341 65.1112 15.1341C63.436 15.1341 61.85 16.3849 61.85 18.7303C61.85 21.0756 63.436 22.4159 65.1112 22.4159C66.8312 22.4159 68.3947 21.1203 68.3947 18.775ZM74.5988 24.9622V12.5877H77.7259V24.9622H74.5988ZM76.1847 11.1134C75.0679 11.1134 74.2637 10.3093 74.2637 9.28181C74.2637 8.25432 75.0679 7.4502 76.1847 7.4502C77.2792 7.4502 78.1057 8.25432 78.1057 9.28181C78.1057 10.3093 77.2792 11.1134 76.1847 11.1134ZM81.3066 21.1203V15.1564H79.8324V12.5877H81.3066V9.52752H84.4561V12.5877H87.2259V15.1564H84.4561V21.1427C84.4561 21.9691 84.7912 22.3265 85.774 22.3265H87.2259V24.9622H85.2603C82.8926 24.9622 81.3066 23.9571 81.3066 21.1203ZM88.671 18.7303C88.671 14.866 91.1727 12.3866 94.3222 12.3866C96.3101 12.3866 97.6727 13.3248 98.4098 14.3523V12.5877H101.559V24.9622H98.4098V23.153C97.6727 24.2251 96.2655 25.1633 94.2998 25.1633C91.1727 25.1633 88.671 22.5945 88.671 18.7303ZM98.4098 18.775C98.4098 16.4296 96.8462 15.1341 95.1263 15.1341C93.451 15.1341 91.8651 16.3849 91.8651 18.7303C91.8651 21.0756 93.451 22.4159 95.1263 22.4159C96.8462 22.4159 98.4098 21.1203 98.4098 18.775ZM104.614 24.9622V8.43301H107.741V24.9622H104.614ZM118.023 9.17013C121.507 9.17013 124.277 10.9347 125.282 14.0619H121.686C120.971 12.744 119.676 12.0516 118.023 12.0516C115.231 12.0516 113.287 14.0396 113.287 17.1444C113.287 20.3162 115.253 22.2818 118.157 22.2818C120.569 22.2818 122.11 20.897 122.579 18.6856H117.219V16.2956H125.662V19.0207C125.037 22.1925 122.2 25.0963 118.045 25.0963C113.511 25.0963 110.071 21.8128 110.071 17.1444C110.071 12.476 113.511 9.17013 118.023 9.17013ZM131.103 18.7973V24.9622H127.976V12.5877H131.103V14.5086C131.885 13.2354 133.18 12.409 134.9 12.409V15.6925H134.074C132.22 15.6925 131.103 16.4073 131.103 18.7973ZM148.957 18.775C148.957 22.6616 146.098 25.1633 142.501 25.1633C138.928 25.1633 136.225 22.6616 136.225 18.775C136.225 14.866 139.017 12.3866 142.591 12.3866C146.165 12.3866 148.957 14.866 148.957 18.775ZM139.397 18.775C139.397 21.232 140.826 22.4382 142.501 22.4382C144.154 22.4382 145.74 21.232 145.74 18.775C145.74 16.2956 144.199 15.1117 142.546 15.1117C140.893 15.1117 139.397 16.2956 139.397 18.775ZM153.507 24.9622L149.866 12.5877H153.038L155.227 22.0138L157.594 12.5877H160.9L163.223 21.9915L165.412 12.5877H168.405L164.787 24.9622H161.414L159.158 16.3179L156.902 24.9622H153.507ZM170.589 21.1203V15.1564H169.114V12.5877H170.589V9.52752H173.738V12.5877H176.508V15.1564H173.738V21.1427C173.738 21.9691 174.073 22.3265 175.056 22.3265H176.508V24.9622H174.542C172.175 24.9622 170.589 23.9571 170.589 21.1203ZM178.757 24.9622V8.43301H181.884V14.1289C182.688 13.0791 184.073 12.409 185.726 12.409C188.518 12.409 190.551 14.2853 190.551 17.7028V24.9622H187.424V18.1272C187.424 16.1392 186.329 15.067 184.676 15.067C182.979 15.067 181.884 16.1392 181.884 18.1272V24.9622H178.757ZM202.862 24.9622L199.489 19.7131L196.429 24.9622H192.899L197.814 17.0997L192.832 9.37116H196.429L199.801 14.598L202.839 9.37116H206.369L201.477 17.2114L206.458 24.9622H202.862Z" fill="black"/>
</svg>
