<svg width="126" height="48" viewBox="0 0 126 48" fill="none" xmlns="http://www.w3.org/2000/svg">
<mask id="mask0_1_915" style="mask-type:luminance" maskUnits="userSpaceOnUse" x="0" y="0" width="126" height="48">
<path d="M125.521 0H0.280029V48H125.521V0Z" fill="white"/>
</mask>
<g mask="url(#mask0_1_915)">
<g style="mix-blend-mode:luminosity">
<path d="M17.5 38.066C15.62 38.36 13.7 38.447 11.72 38.682L5.66998 22.979V39.356C3.77998 39.531 2.07003 39.766 0.280029 40V10H5.29999L12.18 27.022V10H17.5V38.066ZM27.91 20.986C29.96 20.986 33.1 20.898 34.99 20.898V25.586C32.64 25.586 29.9 25.586 27.91 25.674V32.647C31.02 32.471 34.13 32.236 37.27 32.148V36.66L22.63 37.685V10H37.27V14.688H27.91V20.986ZM56.9399 14.688H51.45V36.25C49.67 36.25 47.88 36.25 46.16 36.309V14.688H40.67V10H56.9399V14.688ZM65.53 20.664H72.77V25.352H65.53V35.986H60.34V10H75.12V14.688H65.53V20.664ZM83.71 31.885C86.72 31.943 89.7599 32.149 92.7 32.295V36.924C87.9799 36.66 83.25 36.397 78.42 36.309V10H83.71V31.885ZM97.17 37.246C98.85 37.334 100.64 37.422 102.36 37.598V10H97.17V37.246ZM125.53 10L118.82 24.268L125.53 40C123.54 39.766 121.56 39.443 119.58 39.15L115.78 30.479L111.91 38.447C109.99 38.154 108.14 38.066 106.22 37.832L113.03 24.092L106.88 10H112.57L116.04 17.881L119.74 10H125.53Z" fill="#575757"/>
</g>
</g>
</svg>
