<svg width="147" height="48" viewBox="0 0 147 48" fill="none" xmlns="http://www.w3.org/2000/svg">
<mask id="mask0_1_909" style="mask-type:luminance" maskUnits="userSpaceOnUse" x="0" y="0" width="147" height="48">
<path d="M146.375 0H0.823975V48H146.375V0Z" fill="white"/>
</mask>
<g mask="url(#mask0_1_909)">
<g style="mix-blend-mode:luminosity">
<path d="M51.525 34.775V20.22H51.818L63.772 34.775H67.533V13.401H63.354V27.919H63.061L51.107 13.401H47.345V34.775H51.525ZM79.362 35.105C84.879 35.105 88.265 31.952 88.265 26.672C88.265 21.43 84.879 18.24 79.362 18.24C73.887 18.24 70.459 21.43 70.459 26.672C70.501 31.952 73.845 35.105 79.362 35.105ZM79.362 32.025C76.436 32.025 74.764 30.082 74.764 26.672C74.764 23.3 76.436 21.32 79.362 21.32C82.288 21.32 83.96 23.3 83.96 26.672C83.96 30.082 82.288 32.025 79.362 32.025ZM92.068 14.611V18.68H89.142V21.613H92.068V30.449C92.068 33.602 93.74 34.848 98.003 34.848C98.798 34.848 99.592 34.775 100.219 34.665V31.805C99.717 31.842 99.383 31.879 98.798 31.879C97.042 31.879 96.248 31.182 96.248 29.569V21.613H100.219V18.68H96.248V14.611H92.068ZM102.726 34.775H106.906V18.57H102.726V34.775ZM104.816 15.894C106.196 15.894 107.324 14.904 107.324 13.694C107.324 12.447 106.196 11.458 104.816 11.458C103.437 11.458 102.309 12.447 102.309 13.694C102.309 14.904 103.437 15.894 104.816 15.894ZM118.359 35.105C123.876 35.105 127.261 31.952 127.261 26.672C127.261 21.43 123.876 18.24 118.359 18.24C112.883 18.24 109.456 21.43 109.456 26.672C109.456 31.952 112.8 35.105 118.359 35.105ZM118.359 32.025C115.433 32.025 113.761 30.082 113.761 26.672C113.761 23.3 115.433 21.32 118.359 21.32C121.243 21.32 122.956 23.3 122.956 26.672C122.914 30.082 121.243 32.025 118.359 32.025ZM129.727 34.775H133.907V25.353C133.907 22.97 135.495 21.466 137.961 21.466C140.511 21.466 141.681 22.713 141.681 25.169V34.775H145.861V24.289C145.861 20.403 143.604 18.24 139.508 18.24C136.749 18.24 134.91 19.34 134.032 21.173H133.74V18.57H129.686C129.727 18.57 129.727 34.775 129.727 34.775Z" fill="black"/>
<path fill-rule="evenodd" clip-rule="evenodd" d="M7.26898 12.033C8.48598 12.902 8.926 12.834 11.203 12.696L32.661 11.552C33.127 11.552 32.738 11.14 32.583 11.094L29.011 8.828C28.338 8.37 27.406 7.821 25.672 7.958L4.914 9.30902C4.163 9.37702 4.00797 9.72102 4.31897 9.97302L7.26898 12.033ZM8.56299 16.45V36.41C8.56299 37.486 9.15901 37.875 10.531 37.806L34.11 36.593C35.482 36.524 35.637 35.792 35.637 34.922V15.1C35.637 14.23 35.249 13.749 34.421 13.818L9.78003 15.1C8.87403 15.168 8.56299 15.58 8.56299 16.45ZM31.832 17.526C31.988 18.121 31.832 18.739 31.159 18.808L30.021 19.014V33.755C29.037 34.212 28.131 34.487 27.355 34.487C26.138 34.487 25.827 34.144 24.922 33.137L17.493 22.814V32.793L19.848 33.251C19.848 33.251 19.848 34.464 17.959 34.464L12.731 34.739C12.575 34.464 12.731 33.8 13.248 33.663L14.62 33.32V20.135L12.731 19.998C12.575 19.403 12.964 18.533 14.025 18.465L19.641 18.121L27.38 28.559V19.334L25.413 19.128C25.258 18.396 25.879 17.847 26.63 17.778L31.832 17.526ZM3.17999 7.47802L24.792 6.08099C27.432 5.87499 28.131 6.01301 29.788 7.08801L36.672 11.369C37.811 12.101 38.2 12.307 38.2 13.108V36.616C38.2 38.081 37.604 38.951 35.482 39.088L10.401 40.438C8.796 40.507 8.04598 40.301 7.21698 39.363L2.11798 33.526C1.21298 32.45 0.823975 31.649 0.823975 30.71V9.81201C0.823975 8.59901 1.44599 7.61502 3.17999 7.47802Z" fill="black"/>
</g>
</g>
</svg>
