<svg width="111" height="48" viewBox="0 0 111 48" fill="none" xmlns="http://www.w3.org/2000/svg">
<mask id="mask0_1_920" style="mask-type:luminance" maskUnits="userSpaceOnUse" x="0" y="0" width="112" height="48">
<path d="M111.003 0H0.430054V48H111.003V0Z" fill="white"/>
</mask>
<g mask="url(#mask0_1_920)">
<g style="mix-blend-mode:luminosity">
<path fill-rule="evenodd" clip-rule="evenodd" d="M90.36 20.597C90.78 21.243 90.92 21.977 90.97 22.803L91.03 23.904V31.601L91.09 32.703C91.21 34.502 92.71 35.833 94.75 35.946L95.99 36V23.904L96.05 22.803C96.1001 21.987 96.24 21.238 96.67 20.588C97.1 19.921 97.73 19.368 98.49 18.983C99.24 18.599 100.1 18.398 100.97 18.399C101.84 18.401 102.69 18.605 103.44 18.991C104.2 19.378 104.82 19.933 105.26 20.602C105.68 21.247 105.81 21.996 105.86 22.803L105.92 23.9V31.601L105.98 32.703C106.11 34.511 107.6 35.842 109.65 35.946L110.89 36V22.803C110.89 20.47 109.84 18.232 107.98 16.581C106.12 14.931 103.59 14.003 100.96 14.002C99.55 14.001 98.16 14.266 96.87 14.78C95.59 15.294 94.44 16.045 93.51 16.983C92.58 16.046 91.43 15.295 90.15 14.781C88.87 14.266 87.4701 14.001 86.0601 14.001C84.0001 14.001 82.09 14.556 80.5 15.513C79.54 14.557 77.37 14.001 76.13 14.001V36L77.37 35.946C79.45 35.824 80.95 34.53 81.03 32.703L81.1 31.601V23.904L81.16 22.803C81.21 21.973 81.34 21.243 81.77 20.593C82.2 19.926 82.83 19.373 83.59 18.988C84.34 18.604 85.1901 18.401 86.0601 18.4C86.9301 18.401 87.79 18.604 88.54 18.989C89.3 19.375 89.92 19.929 90.36 20.597ZM5.39001 35.947L6.63 36H25.25L25.1899 34.903C25.0199 33.094 23.57 31.773 21.53 31.655L20.28 31.601H9.12L24.01 18.399L23.9399 17.303C23.8499 15.476 22.34 14.156 20.28 14.055L19.04 14.006L0.430054 14.001L0.48999 15.102C0.64999 16.893 2.12002 18.242 4.15002 18.346L5.39001 18.4H16.5601L1.67004 31.602L1.72998 32.703C1.84998 34.516 3.33001 35.829 5.39001 35.946V35.947ZM71.26 17.221C72.41 18.243 73.3299 19.455 73.95 20.79C74.57 22.124 74.9 23.555 74.9 24.999C74.9 26.444 74.57 27.874 73.95 29.209C73.3299 30.544 72.41 31.756 71.26 32.778C68.93 34.84 65.77 35.998 62.48 35.998C59.19 35.998 56.03 34.84 53.7 32.778C48.86 28.482 48.86 21.517 53.7 17.221C54.86 16.2 56.22 15.39 57.73 14.838C59.23 14.285 60.85 14 62.47 14C64.11 13.999 65.72 14.283 67.23 14.836C68.74 15.389 70.11 16.199 71.26 17.221ZM67.75 20.336C69.14 21.574 69.9301 23.253 69.9301 25.003C69.9301 26.754 69.14 28.433 67.75 29.671C66.35 30.908 64.46 31.603 62.48 31.603C60.51 31.603 58.61 30.908 57.22 29.671C55.82 28.433 55.04 26.754 55.04 25.003C55.04 23.253 55.82 21.574 57.22 20.336C58.61 19.099 60.51 18.404 62.48 18.404C64.46 18.404 66.35 19.099 67.75 20.336ZM36.4301 14C38.0601 14 39.67 14.285 41.17 14.838C42.68 15.391 44.0499 16.201 45.2 17.222C50.04 21.517 50.04 28.483 45.2 32.778C42.8699 34.84 39.71 35.998 36.42 35.998C33.13 35.998 29.97 34.84 27.64 32.778C22.79 28.482 22.79 21.517 27.64 17.221C28.79 16.2 30.16 15.39 31.66 14.838C33.17 14.285 34.78 14 36.41 14H36.4301ZM41.6801 20.334C43.0801 21.572 43.87 23.251 43.87 25.002C43.87 26.752 43.0801 28.431 41.6801 29.67C40.2901 30.907 38.39 31.602 36.42 31.602C34.44 31.602 32.55 30.907 31.15 29.67C29.76 28.431 28.97 26.753 28.97 25.002C28.97 23.252 29.76 21.573 31.15 20.335C32.55 19.098 34.44 18.403 36.42 18.403C38.39 18.403 40.2901 19.098 41.6801 20.335V20.334Z" fill="#7C7C7C"/>
</g>
</g>
</svg>
